<svg xmlns="http://www.w3.org/2000/svg" version="1.1" xmlns:xlink="http://www.w3.org/1999/xlink" xmlns:svgjs="http://svgjs.com/svgjs" width="2800" height="1800" preserveAspectRatio="none" viewBox="0 0 2800 1800"><g mask="url(&quot;#SvgjsMask1008&quot;)" fill="none"><rect width="2800" height="1800" x="0" y="0" fill="rgba(246, 254, 255, 1)"></rect><path d="M -171.15597537300994,1549 C 15.64,1380.4 389.24,776.8 762.8440246269901,706 C 1136.44,635.2 1323.24,1264.6 1696.8440246269902,1195 C 2070.44,1125.4 2257.24,287.6 2630.84402462699,358 C 3004.44,428.4 3531.01,1446 3564.84402462699,1547 C 3598.68,1648 2952.97,999.8 2800,863" stroke="rgba(51, 186, 194, 0.58)" stroke-width="2"></path><path d="M -1383.7508752816457,448 C -1196.95,622.6 -823.35,1269.8 -449.7508752816458,1321 C -76.15,1372.2 110.65,686 484.2491247183542,704 C 857.85,722 1044.65,1391.8 1418.2491247183543,1411 C 1791.85,1430.2 2075.9,810.8 2352.2491247183543,800 C 2628.6,789.2 2710.45,1245.6 2800,1357" stroke="rgba(51, 186, 194, 0.58)" stroke-width="2"></path><path d="M -389.7497033727635,632 C -202.95,708 170.65,991.6 544.2502966272365,1012 C 917.85,1032.4 1104.65,624.8 1478.2502966272364,734 C 1851.85,843.2 2038.65,1529 2412.2502966272364,1558 C 2785.85,1587 3268.7,1001.4 3346.2502966272364,879 C 3423.8,756.6 2909.25,932.6 2800,946" stroke="rgba(51, 186, 194, 0.58)" stroke-width="2"></path><path d="M -1378.5933980743434,487 C -1191.79,711.2 -818.19,1611.8 -444.59339807434355,1608 C -70.99,1604.2 115.81,511.6 489.40660192565645,468 C 863.01,424.4 1049.81,1373.6 1423.4066019256566,1390 C 1797.01,1406.4 2082.09,525.4 2357.4066019256566,550 C 2632.73,574.6 2711.48,1320.4 2800,1513" stroke="rgba(51, 186, 194, 0.58)" stroke-width="2"></path></g><defs><mask id="SvgjsMask1008"><rect width="2800" height="1800" fill="#ffffff"></rect></mask></defs></svg>